<svg width="25" height="23" viewBox="0 0 25 23" fill="none" xmlns="http://www.w3.org/2000/svg">
<path d="M15.5541 11.1505C16.3494 11.1505 16.9941 10.5058 16.9941 9.71051C16.9941 8.91522 16.3494 8.27051 15.5541 8.27051C14.7588 8.27051 14.1141 8.91522 14.1141 9.71051C14.1141 10.5058 14.7588 11.1505 15.5541 11.1505Z" fill="url(#paint0_linear_15_3)"/>
<path d="M17.6942 3.14059C19.8542 4.44059 21.6942 6.92059 21.7542 9.52059C21.8142 12.2306 19.9742 14.9106 17.8342 16.2706C16.6042 17.0506 17.7442 19.0106 18.9742 18.2206C21.8642 16.3806 24.0842 13.0006 24.0142 9.52059C23.9442 6.13059 21.7042 2.91059 18.8342 1.19059C17.5842 0.43059 16.4442 2.39059 17.6942 3.14059Z" fill="url(#paint1_linear_15_3)"/>
<path d="M16.5042 6.79072C17.5242 7.41072 18.3942 8.58072 18.3942 9.80072C18.3942 11.0107 17.5542 12.2207 16.5742 12.8507C15.5242 13.5207 16.5042 15.2007 17.5542 14.5207C19.1242 13.5107 20.3342 11.7107 20.3342 9.80072C20.3342 7.89072 19.0842 6.09072 17.4842 5.11072C16.4142 4.46072 15.4342 6.14072 16.5042 6.79072Z" fill="url(#paint2_linear_15_3)"/>
<path d="M11.9641 19.0205C11.9641 19.3905 11.7941 19.7105 11.5141 19.9105C11.4341 19.9605 11.3541 20.0005 11.2841 20.0505H11.2741C9.74415 20.9405 8.20415 21.8305 6.66415 22.7205C5.71415 23.2805 4.90415 22.6205 4.87415 21.7305C4.85415 21.1905 4.86415 20.6505 4.86415 20.1005C4.86415 19.6305 4.84415 19.1605 4.87415 18.7005C4.89415 18.3205 4.75415 18.0805 4.43415 17.8805C2.51415 16.6505 1.19415 14.9405 0.494145 12.7605C-1.30585 7.2005 1.97415 1.4205 7.69415 0.2205C8.70415 0.0105003 9.69415 -0.0495001 10.6341 0.0404999C11.1941 0.1005 11.6341 0.570501 11.6341 1.1505C11.6341 1.7705 11.1341 2.2605 10.5241 2.2605C10.4941 2.2605 10.4641 2.2605 10.4341 2.2505C10.4241 2.2505 10.4041 2.2505 10.3941 2.2505C9.59414 2.1705 8.78415 2.2205 7.97415 2.4105C4.64415 3.2005 1.25415 6.7805 2.45415 11.6405C3.02415 13.9305 4.45415 15.4905 6.52415 16.5105C6.97415 16.7305 7.17415 17.0005 7.09415 17.4805C7.08415 17.5305 7.08415 17.5905 7.08415 17.6505V19.9005C7.19415 19.8405 7.24415 19.8205 7.29415 19.7905C8.23415 19.2505 9.17415 18.7205 10.1141 18.1805C10.2441 18.1105 10.3841 18.0305 10.5141 17.9505C10.6241 17.9205 10.7341 17.9005 10.8441 17.9005C11.4641 17.9105 11.9641 18.4105 11.9641 19.0205Z" fill="url(#paint3_linear_15_3)"/>
<path d="M11.6042 3.66064C11.6942 3.83064 11.7542 3.91065 11.7842 3.99065C11.8542 4.23065 11.8942 4.48065 11.9542 4.73065C12.2042 5.81065 12.8842 6.45064 13.9642 6.70064C14.2042 6.75064 14.4442 6.79064 14.6742 6.87064C14.7542 6.89064 14.8142 6.99065 14.8742 7.06065C14.8042 7.11065 14.7442 7.19064 14.6742 7.22064C14.4442 7.29064 14.2042 7.33065 13.9642 7.39065C12.8042 7.64065 12.1442 8.38064 11.9142 9.52064C11.8742 9.72064 11.8442 9.93064 11.7842 10.1206C11.7542 10.2006 11.6642 10.2606 11.5942 10.3206C11.5342 10.2506 11.4542 10.2006 11.4342 10.1206C11.3442 9.80064 11.2842 9.46065 11.1942 9.14065C10.9442 8.24065 10.3442 7.68065 9.44423 7.44065C9.14423 7.36065 8.84423 7.31064 8.54423 7.22064C8.46423 7.20064 8.40423 7.10064 8.33423 7.04064C8.40423 6.99064 8.46423 6.90064 8.53423 6.88064C8.83423 6.80064 9.13423 6.74064 9.43423 6.66064C10.3942 6.41064 10.9842 5.79064 11.2342 4.83064C11.3042 4.56064 11.3542 4.28064 11.4242 4.01064C11.4442 3.90064 11.5142 3.82064 11.6042 3.66064Z" fill="url(#paint4_linear_15_3)"/>
<path d="M6.8042 10.4908C7.1742 10.3108 7.6242 10.2008 7.8942 9.92078C8.1742 9.64078 8.2742 9.20078 8.4742 8.80078C8.5142 8.87078 8.5642 8.93078 8.5742 9.00078C8.6942 9.78078 9.1342 10.2408 9.9242 10.3708C9.9942 10.3808 10.0542 10.4508 10.1142 10.4908C10.0542 10.5308 9.9942 10.5908 9.9242 10.6108C9.8142 10.6508 9.6842 10.6708 9.5742 10.7008C9.0442 10.8508 8.7542 11.2308 8.6342 11.7508C8.6042 11.8908 8.5542 12.0208 8.5042 12.2108C8.2942 11.7708 8.1842 11.3208 7.9042 11.0408C7.6142 10.7708 7.1642 10.6608 6.8042 10.4908Z" fill="url(#paint5_linear_15_3)"/>
<path d="M13.8842 5.78076C13.7842 5.45076 13.6042 5.25076 13.2542 5.17076C13.5742 5.06076 13.8042 4.90076 13.8642 4.53076C13.9542 4.87076 14.1442 5.08076 14.4942 5.15076C14.1942 5.27076 13.9442 5.41076 13.8842 5.78076Z" fill="url(#paint6_linear_15_3)"/>
<defs>
<linearGradient id="paint0_linear_15_3" x1="14.1116" y1="9.71151" x2="16.9866" y2="9.71151" gradientUnits="userSpaceOnUse">
<stop stop-color="#F58320"/>
<stop offset="0.0514" stop-color="#F78F36"/>
<stop offset="0.154" stop-color="#F9A762"/>
<stop offset="0.2609" stop-color="#FCBD87"/>
<stop offset="0.3701" stop-color="#FDD0A8"/>
<stop offset="0.482" stop-color="#FEE0C4"/>
<stop offset="0.5975" stop-color="#FFECDB"/>
<stop offset="0.7182" stop-color="#FFF5EC"/>
<stop offset="0.8474" stop-color="#FFFCF9"/>
<stop offset="1" stop-color="white"/>
</linearGradient>
<linearGradient id="paint1_linear_15_3" x1="17.1544" y1="9.70639" x2="24.0142" y2="9.70639" gradientUnits="userSpaceOnUse">
<stop stop-color="#F58320"/>
<stop offset="0.0514" stop-color="#F78F36"/>
<stop offset="0.154" stop-color="#F9A762"/>
<stop offset="0.2609" stop-color="#FCBD87"/>
<stop offset="0.3701" stop-color="#FDD0A8"/>
<stop offset="0.482" stop-color="#FEE0C4"/>
<stop offset="0.5975" stop-color="#FFECDB"/>
<stop offset="0.7182" stop-color="#FFF5EC"/>
<stop offset="0.8474" stop-color="#FFFCF9"/>
<stop offset="1" stop-color="white"/>
</linearGradient>
<linearGradient id="paint2_linear_15_3" x1="16.0437" y1="9.82662" x2="20.3324" y2="9.82662" gradientUnits="userSpaceOnUse">
<stop stop-color="#F58320"/>
<stop offset="0.0514" stop-color="#F78F36"/>
<stop offset="0.154" stop-color="#F9A762"/>
<stop offset="0.2609" stop-color="#FCBD87"/>
<stop offset="0.3701" stop-color="#FDD0A8"/>
<stop offset="0.482" stop-color="#FEE0C4"/>
<stop offset="0.5975" stop-color="#FFECDB"/>
<stop offset="0.7182" stop-color="#FFF5EC"/>
<stop offset="0.8474" stop-color="#FFFCF9"/>
<stop offset="1" stop-color="white"/>
</linearGradient>
<linearGradient id="paint3_linear_15_3" x1="6.60675" y1="2.8336" x2="5.35815" y2="25.9146" gradientUnits="userSpaceOnUse">
<stop stop-color="white"/>
<stop offset="0.2087" stop-color="#FFFCFA"/>
<stop offset="0.3438" stop-color="#FFF6EF"/>
<stop offset="0.4579" stop-color="#FFEEE0"/>
<stop offset="0.5606" stop-color="#FEE4CC"/>
<stop offset="0.6554" stop-color="#FED6B4"/>
<stop offset="0.7445" stop-color="#FDC696"/>
<stop offset="0.8292" stop-color="#FBB376"/>
<stop offset="0.9103" stop-color="#F89D51"/>
<stop offset="0.986" stop-color="#F68726"/>
<stop offset="1" stop-color="#F58320"/>
</linearGradient>
<linearGradient id="paint4_linear_15_3" x1="14.8783" y1="6.98324" x2="8.32463" y2="6.98324" gradientUnits="userSpaceOnUse">
<stop stop-color="#F68828"/>
<stop offset="0.0289" stop-color="#F7923C"/>
<stop offset="0.088" stop-color="#F9A763"/>
<stop offset="0.1528" stop-color="#FCBB83"/>
<stop offset="0.2219" stop-color="#FDCCA1"/>
<stop offset="0.2965" stop-color="#FEDBBB"/>
<stop offset="0.3783" stop-color="#FFE7D1"/>
<stop offset="0.4704" stop-color="#FFF0E3"/>
<stop offset="0.5785" stop-color="#FFF7F1"/>
<stop offset="0.7179" stop-color="#FFFDFB"/>
<stop offset="1" stop-color="white"/>
</linearGradient>
<linearGradient id="paint5_linear_15_3" x1="10.1132" y1="10.5077" x2="6.7994" y2="10.5077" gradientUnits="userSpaceOnUse">
<stop stop-color="#F68828"/>
<stop offset="0.0289" stop-color="#F7923C"/>
<stop offset="0.088" stop-color="#F9A763"/>
<stop offset="0.1528" stop-color="#FCBB83"/>
<stop offset="0.2219" stop-color="#FDCCA1"/>
<stop offset="0.2965" stop-color="#FEDBBB"/>
<stop offset="0.3783" stop-color="#FFE7D1"/>
<stop offset="0.4704" stop-color="#FFF0E3"/>
<stop offset="0.5785" stop-color="#FFF7F1"/>
<stop offset="0.7179" stop-color="#FFFDFB"/>
<stop offset="1" stop-color="white"/>
</linearGradient>
<linearGradient id="paint6_linear_15_3" x1="13.2044" y1="5.16216" x2="14.4958" y2="5.15436" gradientUnits="userSpaceOnUse">
<stop stop-color="#F68828"/>
<stop offset="0.0289" stop-color="#F7923C"/>
<stop offset="0.088" stop-color="#F9A763"/>
<stop offset="0.1528" stop-color="#FCBB83"/>
<stop offset="0.2219" stop-color="#FDCCA1"/>
<stop offset="0.2965" stop-color="#FEDBBB"/>
<stop offset="0.3783" stop-color="#FFE7D1"/>
<stop offset="0.4704" stop-color="#FFF0E3"/>
<stop offset="0.5785" stop-color="#FFF7F1"/>
<stop offset="0.7179" stop-color="#FFFDFB"/>
<stop offset="1" stop-color="white"/>
</linearGradient>
</defs>
</svg>
